<svg height="56" viewBox="0 0 56 56" width="56" xmlns="http://www.w3.org/2000/svg"><path d="m20.8867 50.7109h14.2265c2.9766 0 4.4063-.9609 5.9297-2.625l8.625-9.5625c1.547-1.7109 1.9454-2.8359 1.9454-5.1563v-10.7109c0-2.3437-.3984-3.4453-1.9454-5.1562l-8.625-9.5625c-1.5234-1.6641-2.9531-2.6484-5.9297-2.6484h-14.2265c-2.9766 0-4.3828.9843-5.9297 2.6484l-8.625 9.5625c-1.5469 1.7109-1.9453 2.8125-1.9453 5.1562v10.7109c0 2.3204.3984 3.4454 1.9453 5.1563l8.625 9.5625c1.5469 1.6641 2.9531 2.625 5.9297 2.625zm-1.2891-12.3047c-1.1016 0-1.9922-.914-1.9922-1.9922 0-.539.2344-1.0312.5859-1.3593l7.0079-7.0313-7.0079-7.0312c-.3515-.3282-.5859-.8204-.5859-1.3594 0-1.1016.8906-1.9453 1.9922-1.9453.5391 0 .9844.1875 1.3359.5625l7.0547 7.0312 7.0782-7.0546c.3984-.4219.8203-.586 1.3359-.586 1.1016 0 1.9922.8672 1.9922 1.9687 0 .5391-.1875.9844-.5859 1.3594l-7.0313 7.0547 7.0078 6.9844c.3516.375.586.8437.586 1.4062 0 1.0782-.8907 1.9922-1.9922 1.9922-.5625 0-1.0313-.2578-1.3829-.6093l-7.0078-7.0078-7.0078 7.0078c-.3515.3749-.8437.6093-1.3828.6093z"/></svg>